<svg aria-hidden="true" style="position: absolute; width: 0; height: 0; overflow: hidden;" version="1.1" xmlns="http://www.w3.org/2000/svg" xmlns:xlink="http://www.w3.org/1999/xlink">
    <defs>
        <symbol id="icon-youtube" viewBox="0 0 32 32">
            <path d="M24.76 4.718c3.442 0.281 4.657 2.382 4.954 5.568 0.405 4.319 0.378 8.36-0.077 12.12-0.298 2.464-1.617 4.486-4.173 4.771-3.37 0.378-7.533 0.517-12.487 0.418-1.783-0.038-3.638-0.137-5.563-0.301-2.481-0.211-4.207-1.158-4.818-3.602-0.246-0.986-0.402-2.078-0.47-3.278-0.201-3.499-0.164-6.877 0.112-10.133 0.221-2.635 1.244-5.037 4.178-5.437 1.036-0.142 2.071-0.238 3.107-0.293 5.338-0.283 10.416-0.229 15.237 0.166zM27.786 10.376c-0.146-1.664-0.733-3.457-2.69-3.636-5.534-0.509-11.191-0.551-16.97-0.122-2.176 0.159-3.526 0.564-3.82 2.97-0.512 4.2-0.514 8.489-0.005 12.873 0.206 1.766 1.192 2.717 2.963 2.858 5.707 0.45 11.134 0.482 16.28 0.102 1.234-0.092 2.051-0.226 2.451-0.405 0.798-0.36 1.304-0.986 1.518-1.878 0.211-0.886 0.353-2.029 0.425-3.432 0.162-3.218 0.11-6.328-0.151-9.331h-0.001z"></path>
            <path d="M13.872 11.238l6.818 3.931c0.641 0.37 0.641 1.294 0 1.664l-6.818 3.931c-0.641 0.37-1.441-0.094-1.441-0.832v-7.863c0-0.738 0.8-1.202 1.441-0.832v0.001zM14.508 13.918c-0.070-0.038-0.154 0.013-0.154 0.092l0.013 3.996c0.002 0.082 0.087 0.132 0.157 0.092l3.539-2.012c0.070-0.040 0.070-0.142 0-0.182l-3.555-1.986z"></path>
        </symbol>
        <symbol id="icon-google" viewBox="0 0 32 32">
            <path d="M30 22.48c0.008 4.15-3.349 7.517-7.498 7.525l-12.954 0.022c-4.15 0.008-7.517-3.351-7.525-7.498l-0.022-13.010c-0.008-4.15 3.349-7.517 7.498-7.525l12.954-0.022c4.15-0.008 7.517 3.351 7.525 7.498l0.022 13.010zM27.85 9.613c0-3.012-2.442-5.454-5.454-5.454h-12.796c-3.012 0-5.454 2.442-5.454 5.454v12.796c0 3.012 2.442 5.454 5.454 5.454h12.796c3.012 0 5.454-2.442 5.454-5.454v-12.796z"></path>
            <path d="M21.766 17.081c-1.551 0.011-3.165 0.014-4.836 0.011-1.507-0.002-1.534-2.172 0.096-2.169 1.947 0.002 3.982 0.002 6.106 0.006 0.582 0 1.078 0.38 1.086 0.993 0.022 1.715-0.38 3.2-1.206 4.453-1.759 2.673-4.229 3.966-7.41 3.878-3.714-0.102-7.066-2.935-7.681-6.54-0.534-3.126 0.282-5.711 2.451-7.752 2.976-2.804 7.626-2.918 10.805-0.374 0.391 0.312 0.536 0.714 0.44 1.203-0.167 0.848-1.141 0.958-1.75 0.514-2.334-1.696-4.65-1.866-6.945-0.511-2.866 1.69-3.874 5.293-2.23 8.22 2.725 4.85 10.088 3.731 11.237-1.731 0.030-0.134-0.025-0.2-0.162-0.2v-0.001z"></path>
        </symbol>
        <symbol id="icon-twitter" viewBox="0 0 32 32">
            <path d="M12.272 9.981c0.063 0.033 0.139 0 0.158-0.068 1.165-4.171 3.918-6.137 8.261-5.897 1.9 0.104 3.482 0.872 4.751 2.307 0.129 0.145 0.312 0.227 0.506 0.227l3.010-0.002c0.831 0 1.326 0.924 0.866 1.615-1.367 2.050-2.102 3.16-2.203 3.327-0.129 0.21-0.202 0.44-0.216 0.683-0.118 2.023-0.38 3.955-1.022 5.924-1.624 4.983-5.527 8.51-10.598 9.568-5.618 1.17-10.402-0.26-13.502-5.161-0.525-0.831-0.32-1.433 0.618-1.804 0.604-0.241 1.236-0.438 1.894-0.59 0.145-0.033 0.21-0.205 0.12-0.326-1.572-2.13-2.417-4.464-2.534-7.006-0.137-2.906 0.522-5.492 1.979-7.758 0.162-0.251 0.339-0.492 0.527-0.722 0.511-0.618 1.378-0.345 1.742 0.284 1.358 2.348 3.239 4.147 5.642 5.399l0.002-0.001zM7.843 19.921c0.432 0.5 0.238 1.277-0.38 1.514-0.735 0.282-1.501 0.527-2.29 0.738-0.238 0.063-0.282 0.194-0.131 0.388 2.761 3.562 7.269 3.918 11.364 2.703 5.967-1.766 8.827-7.441 8.818-13.417 0-0.363 0.104-0.818 0.306-1.123 0.396-0.598 0.826-1.222 1.285-1.875 0.058-0.082-0.002-0.191-0.104-0.191l-1.692 0.030c-0.339 0.006-0.659-0.156-0.856-0.432-0.818-1.134-1.758-1.862-3.206-2.056-3.592-0.484-6.301 1.586-6.476 5.273-0.054 1.121-1.022 1.252-1.883 0.946-2.764-0.984-5.098-2.807-6.806-5.186-0.066-0.090-0.202-0.077-0.249 0.025-0.905 1.998-1.214 4.106-0.926 6.323 0.326 2.482 1.569 4.418 3.229 6.339h-0.002z"></path>
        </symbol>
        <symbol id="icon-instagram" viewBox="0 0 32 32">
            <path d="M29.978 22.468c-0.008 4.162-3.386 7.529-7.547 7.521l-12.91-0.022c-4.162-0.008-7.529-3.386-7.521-7.547l0.022-12.887c0.008-4.162 3.386-7.529 7.547-7.521l12.91 0.022c4.162 0.008 7.529 3.386 7.521 7.547l-0.022 12.887zM27.854 9.654c0.006-3.016-2.435-5.464-5.45-5.47l-12.783-0.022c-3.016-0.006-5.464 2.435-5.47 5.45l-0.022 12.718c-0.006 3.016 2.435 5.464 5.45 5.47l12.784 0.022c3.016 0.006 5.464-2.435 5.47-5.45l0.022-12.718h-0.001z"></path>
            <path d="M23.070 10.455c0.868 0 1.571-0.703 1.571-1.571s-0.704-1.571-1.571-1.571c-0.868 0-1.571 0.703-1.571 1.571s0.703 1.571 1.571 1.571z"></path>
            <path d="M22.217 15.978c0 3.451-2.795 6.247-6.247 6.247s-6.247-2.795-6.247-6.247c0-3.452 2.795-6.247 6.247-6.247s6.247 2.795 6.247 6.247zM20.047 15.973c0-2.252-1.826-4.078-4.078-4.078s-4.078 1.826-4.078 4.078c0 2.252 1.826 4.078 4.078 4.078s4.078-1.826 4.078-4.078z"></path>
        </symbol>
        <symbol id="icon-facebook" viewBox="0 0 32 32">
            <path d="M30 22.356c0.016 4.178-3.36 7.575-7.538 7.591l-12.826 0.045c-4.178 0.016-7.575-3.36-7.591-7.538l-0.045-12.81c-0.016-4.178 3.36-7.575 7.538-7.591l12.826-0.045c4.178-0.016 7.575 3.36 7.591 7.538l0.045 12.81zM22.418 16.23c1.509 0.027 1.411 2.096-0.027 2.098-1.272 0.002-2.593 0.002-3.962 0-0.046 0-0.082 0.035-0.082 0.082v9.243c0 0.104 0.087 0.188 0.194 0.186 1.785-0.071 3.993 0.226 5.63-0.374 2.669-0.974 3.719-3.27 3.682-5.998-0.046-3.498-0.046-7.117 0.006-10.858 0.014-1.19-0.123-2.166-0.412-2.934-0.86-2.274-2.918-3.498-5.31-3.482-4.21 0.030-8.381 0.030-12.504 0.006-2.295-0.014-4.219 1.323-5.117 3.433-0.234 0.554-0.352 1.078-0.352 1.569 0.006 3.993 0.002 8.28-0.008 12.862-0.002 1.438 0.369 2.642 1.116 3.61 0.712 0.922 1.602 1.547 2.666 1.874 0.712 0.221 1.752 0.314 3.117 0.281 1.766-0.041 3.446-0.041 5.046 0.002 0.060 0.002 0.109-0.046 0.109-0.106l-0.035-9.254c0-0.112-0.058-0.166-0.169-0.158-0.346 0.025-0.702 0.044-1.070 0.062-1.681 0.085-1.814-2.218-0.205-2.17 0.456 0.014 0.898 0.014 1.321-0.002 0.104-0.006 0.183-0.093 0.174-0.197-0.066-0.942-0.128-1.959 0.188-2.858 0.598-1.694 1.736-2.773 3.411-3.234 0.739-0.205 1.684-0.248 2.833-0.134 0.51 0.052 0.786 0.333 0.827 0.846l0.014 0.155c0.052 0.674-0.257 1.042-0.928 1.106-0.374 0.035-0.772 0.044-1.195 0.019-1.708-0.098-3.089 1.193-3.032 2.945 0.014 0.404 0.008 0.805-0.019 1.206-0.006 0.087 0.062 0.161 0.15 0.158 1.334-0.014 2.65-0.011 3.946 0.014l-0.002 0.002z"></path>
        </symbol>
        <symbol id="icon-linkedin" viewBox="0 0 32 32">
            <path d="M29.998 22.399c0.008 4.176-3.368 7.566-7.542 7.574l-12.866 0.022c-4.174 0.008-7.561-3.37-7.569-7.547l-0.022-12.857c-0.008-4.176 3.368-7.566 7.542-7.574l12.866-0.022c4.174-0.008 7.561 3.37 7.569 7.547l0.022 12.857zM27.845 9.65c0.006-3.014-2.434-5.462-5.446-5.468l-12.778-0.022c-3.012-0.006-5.459 2.435-5.465 5.449l-0.022 12.726c-0.006 3.014 2.434 5.462 5.446 5.468l12.778 0.022c3.012 0.006 5.459-2.435 5.465-5.449l0.022-12.726z"></path>
            <path d="M10.417 11.762c0.78 0 1.412-0.633 1.412-1.413s-0.632-1.413-1.412-1.413c-0.78 0-1.412 0.633-1.412 1.413s0.632 1.413 1.412 1.413z"></path>
            <path d="M9.331 14.654l-0.014 7.818c-0.001 0.569 0.459 1.030 1.028 1.031l0.066 0c0.569 0.001 1.030-0.459 1.031-1.028l0.014-7.818c0.001-0.569-0.459-1.030-1.028-1.031l-0.066-0c-0.569-0.001-1.030 0.459-1.031 1.028z"></path>
            <path d="M20.666 14.046c0.962 0.438 1.666 1.197 2.114 2.282 0.262 0.631 0.374 1.446 0.336 2.443-0.044 1.219-0.041 2.37 0.008 3.455 0.035 0.776-0.322 1.189-1.074 1.235h-0.044c-0.702-0.014-1.057-0.377-1.066-1.096-0.014-1.375-0.006-2.766 0.025-4.177 0.011-0.546-0.104-1.017-0.347-1.41-0.374-0.604-0.923-0.934-1.647-0.995-0.587-0.050-1.109 0.118-1.562 0.503-0.282 0.238-0.486 0.527-0.618 0.874-0.118 0.306-0.175 0.642-0.172 1.006 0.008 1.353 0.016 2.766 0.019 4.239 0.002 0.705-0.363 1.066-1.093 1.085-0.014 0-0.030 0-0.044-0.002-0.73-0.079-1.085-0.486-1.060-1.222 0.033-1.033 0.030-2.115-0.008-3.244-0.041-1.194 0.087-2.126 0.385-2.796 0.508-1.14 1.327-1.91 2.462-2.31 1.161-0.41 2.289-0.366 3.385 0.129h0.001z"></path>
        </symbol>
    </defs>
</svg>
