<svg aria-hidden="true" style="position: absolute; width: 0; height: 0; overflow: hidden;" version="1.1" xmlns="http://www.w3.org/2000/svg" xmlns:xlink="http://www.w3.org/1999/xlink">
    <defs>
        <symbol id="icon-training" viewBox="0 0 32 32">
            <path d="M10.492 20.613l-1.158 8.72 6.118-3.671c0.2-0.12 0.299-0.18 0.406-0.203 0.094-0.021 0.192-0.021 0.286 0 0.107 0.023 0.206 0.083 0.406 0.203l6.118 3.671-1.157-8.724-0.332 0.802c-0.206 0.498-0.602 0.894-1.1 1.1s-1.058 0.206-1.556 0l-1.744-0.722c-0.498-0.206-1.058-0.205-1.555 0.001l-1.745 0.722c-0.498 0.206-1.057 0.206-1.555-0s-0.893-0.601-1.1-1.099l-0.331-0.8z"></path>
            <path stroke-linejoin="round" stroke-linecap="round" stroke-miterlimit="4" stroke-width="3.2" d="M10.492 20.613l-1.158 8.72 6.118-3.671c0.2-0.12 0.299-0.18 0.406-0.203 0.094-0.021 0.192-0.021 0.286 0 0.106 0.023 0.206 0.083 0.406 0.203l6.118 3.671-1.157-8.724M21.901 5.665c0.206 0.498 0.601 0.894 1.099 1.101l1.745 0.723c0.498 0.206 0.894 0.602 1.1 1.1s0.206 1.058 0 1.556l-0.722 1.744c-0.206 0.498-0.207 1.058 0.001 1.556l0.721 1.743c0.102 0.247 0.155 0.511 0.155 0.778s-0.053 0.531-0.155 0.778c-0.102 0.247-0.252 0.471-0.441 0.66s-0.413 0.339-0.66 0.441l-1.744 0.722c-0.498 0.206-0.894 0.601-1.1 1.099l-0.723 1.745c-0.206 0.498-0.602 0.894-1.1 1.1s-1.058 0.206-1.556 0l-1.744-0.722c-0.498-0.206-1.057-0.205-1.555 0.001l-1.745 0.722c-0.498 0.206-1.057 0.206-1.555-0s-0.893-0.601-1.1-1.099l-0.723-1.746c-0.206-0.498-0.601-0.894-1.099-1.1l-1.745-0.723c-0.498-0.206-0.893-0.602-1.1-1.1s-0.207-1.057-0.001-1.555l0.722-1.744c0.206-0.498 0.205-1.058-0.001-1.555l-0.721-1.746c-0.102-0.247-0.155-0.511-0.155-0.778s0.053-0.531 0.155-0.778c0.102-0.247 0.252-0.471 0.441-0.66s0.413-0.339 0.66-0.441l1.744-0.722c0.498-0.206 0.893-0.601 1.1-1.098l0.723-1.745c0.206-0.498 0.602-0.894 1.1-1.1s1.058-0.206 1.556 0l1.744 0.722c0.498 0.206 1.058 0.205 1.555-0.001l1.746-0.72c0.498-0.206 1.057-0.206 1.555 0s0.894 0.602 1.1 1.1l0.723 1.746-0-0.003z"></path>
        </symbol>
        <symbol id="icon-theming" viewBox="0 0 32 32">
            <path d="M18.106 18.387c-0.671 0.183-1.377 0.28-2.107 0.28-3.378 0-6.266-2.093-7.44-5.053-3.396 0.925-5.894 4.031-5.894 7.72 0 4.418 3.582 8 8 8s8-3.582 8-8c0-1.041-0.199-2.035-0.56-2.947z"></path>
            <path stroke-linejoin="round" stroke-linecap="round" stroke-miterlimit="4" stroke-width="3.2" d="M16 27.296c1.415 1.267 3.284 2.037 5.333 2.037 4.418 0 8-3.582 8-8 0-3.689-2.497-6.795-5.894-7.72M8.56 13.614c-3.396 0.925-5.894 4.031-5.894 7.72 0 4.418 3.582 8 8 8s8-3.582 8-8c0-1.041-0.199-2.035-0.56-2.947M24 10.667c0 4.418-3.582 8-8 8s-8-3.582-8-8 3.582-8 8-8c4.418 0 8 3.582 8 8z"></path>
        </symbol>
        <symbol id="icon-profile-setup" viewBox="0 0 32 32">
            <path d="M4.175 26.842c-0.528-0.528-0.792-0.792-0.891-1.096-0.087-0.268-0.087-0.556 0-0.824 0.099-0.304 0.363-0.568 0.891-1.096l9.158-9.158 4 4-9.158 9.158c-0.528 0.528-0.792 0.792-1.096 0.891-0.268 0.087-0.556 0.087-0.824 0-0.304-0.099-0.568-0.363-1.096-0.891l-0.983-0.983z"></path>
            <path stroke-linejoin="round" stroke-linecap="round" stroke-miterlimit="4" stroke-width="3.2" d="M17.333 18.667l-4-4M20.014 4.667v-2M25.266 6.748l1.414-1.414M25.266 17.333l1.414 1.414M14.68 6.748l-1.414-1.414M27.347 12h2M8.175 27.825l12.316-12.316c0.528-0.528 0.792-0.792 0.891-1.096 0.087-0.268 0.087-0.556 0-0.824-0.099-0.304-0.363-0.568-0.891-1.096l-0.983-0.983c-0.528-0.528-0.792-0.792-1.096-0.891-0.268-0.087-0.556-0.087-0.824 0-0.304 0.099-0.568 0.363-1.096 0.891l-12.316 12.316c-0.528 0.528-0.792 0.792-0.891 1.096-0.087 0.268-0.087 0.556 0 0.824 0.099 0.304 0.363 0.568 0.891 1.096l0.983 0.983c0.528 0.528 0.792 0.792 1.096 0.891 0.268 0.087 0.556 0.087 0.824 0 0.304-0.099 0.568-0.363 1.096-0.891z"></path>
        </symbol>
        <symbol id="icon-strategy" viewBox="0 0 32 32">
            <path d="M6.666 10.667c2.209 0 4-1.791 4-4s-1.791-4-4-4c-2.209 0-4 1.791-4 4s1.791 4 4 4z"></path>
            <path d="M25.333 29.333c2.209 0 4-1.791 4-4s-1.791-4-4-4c-2.209 0-4 1.791-4 4s1.791 4 4 4z"></path>
            <path stroke-linejoin="round" stroke-linecap="round" stroke-miterlimit="4" stroke-width="3.2" d="M15.333 6.667h0.579c4.063 0 6.094 0 6.866 0.73 0.667 0.631 0.962 1.56 0.782 2.46-0.208 1.041-1.867 2.214-5.184 4.56l-5.419 3.833c-3.317 2.346-4.976 3.519-5.184 4.56-0.18 0.9 0.115 1.829 0.782 2.46 0.771 0.73 2.803 0.73 6.866 0.73h1.246M10.666 6.667c0 2.209-1.791 4-4 4s-4-1.791-4-4c0-2.209 1.791-4 4-4s4 1.791 4 4zM29.333 25.333c0 2.209-1.791 4-4 4s-4-1.791-4-4c0-2.209 1.791-4 4-4s4 1.791 4 4z"></path>
        </symbol>
        <symbol id="icon-dropdown-arrow" viewBox="0 0 32 32">
            <path d="M30.24 10.438c0.333 0.375 0.333 0.729 0 1.063l-13.125 13.125c-0.333 0.333-0.667 0.333-1 0l-13.125-13.125c-0.333-0.333-0.333-0.688 0-1.063l1.25-1.188c0.333-0.375 0.688-0.375 1.063 0l11.313 11.25 11.313-11.25c0.375-0.375 0.729-0.375 1.062 0l1.25 1.188z"></path>
        </symbol>
    </defs>
</svg>
