<svg aria-hidden="true" style="position: absolute; width: 0; height: 0; overflow: hidden;" version="1.1" xmlns="http://www.w3.org/2000/svg" xmlns:xlink="http://www.w3.org/1999/xlink">
    <defs>
        <symbol id="icon-training" viewBox="0 0 32 32">
            <path d="M10.492 20.613l-1.158 8.72 6.118-3.671c0.2-0.12 0.299-0.18 0.406-0.203 0.094-0.021 0.192-0.021 0.286 0 0.107 0.023 0.206 0.083 0.406 0.203l6.118 3.671-1.157-8.724-0.332 0.802c-0.206 0.498-0.602 0.894-1.1 1.1s-1.058 0.206-1.556 0l-1.744-0.722c-0.498-0.206-1.058-0.205-1.555 0.001l-1.745 0.722c-0.498 0.206-1.057 0.206-1.555-0s-0.893-0.601-1.1-1.099l-0.331-0.8z"></path>
            <path stroke-linejoin="round" stroke-linecap="round" stroke-miterlimit="4" stroke-width="3.2" d="M10.492 20.613l-1.158 8.72 6.118-3.671c0.2-0.12 0.299-0.18 0.406-0.203 0.094-0.021 0.192-0.021 0.286 0 0.106 0.023 0.206 0.083 0.406 0.203l6.118 3.671-1.157-8.724M21.901 5.665c0.206 0.498 0.601 0.894 1.099 1.101l1.745 0.723c0.498 0.206 0.894 0.602 1.1 1.1s0.206 1.058 0 1.556l-0.722 1.744c-0.206 0.498-0.207 1.058 0.001 1.556l0.721 1.743c0.102 0.247 0.155 0.511 0.155 0.778s-0.053 0.531-0.155 0.778c-0.102 0.247-0.252 0.471-0.441 0.66s-0.413 0.339-0.66 0.441l-1.744 0.722c-0.498 0.206-0.894 0.601-1.1 1.099l-0.723 1.745c-0.206 0.498-0.602 0.894-1.1 1.1s-1.058 0.206-1.556 0l-1.744-0.722c-0.498-0.206-1.057-0.205-1.555 0.001l-1.745 0.722c-0.498 0.206-1.057 0.206-1.555-0s-0.893-0.601-1.1-1.099l-0.723-1.746c-0.206-0.498-0.601-0.894-1.099-1.1l-1.745-0.723c-0.498-0.206-0.893-0.602-1.1-1.1s-0.207-1.057-0.001-1.555l0.722-1.744c0.206-0.498 0.205-1.058-0.001-1.555l-0.721-1.746c-0.102-0.247-0.155-0.511-0.155-0.778s0.053-0.531 0.155-0.778c0.102-0.247 0.252-0.471 0.441-0.66s0.413-0.339 0.66-0.441l1.744-0.722c0.498-0.206 0.893-0.601 1.1-1.098l0.723-1.745c0.206-0.498 0.602-0.894 1.1-1.1s1.058-0.206 1.556 0l1.744 0.722c0.498 0.206 1.058 0.205 1.555-0.001l1.746-0.72c0.498-0.206 1.057-0.206 1.555 0s0.894 0.602 1.1 1.1l0.723 1.746-0-0.003z"></path>
        </symbol>
        <symbol id="icon-theming" viewBox="0 0 32 32">
            <path d="M18.106 18.387c-0.671 0.183-1.377 0.28-2.107 0.28-3.378 0-6.266-2.093-7.44-5.053-3.396 0.925-5.894 4.031-5.894 7.72 0 4.418 3.582 8 8 8s8-3.582 8-8c0-1.041-0.199-2.035-0.56-2.947z"></path>
            <path stroke-linejoin="round" stroke-linecap="round" stroke-miterlimit="4" stroke-width="3.2" d="M16 27.296c1.415 1.267 3.284 2.037 5.333 2.037 4.418 0 8-3.582 8-8 0-3.689-2.497-6.795-5.894-7.72M8.56 13.614c-3.396 0.925-5.894 4.031-5.894 7.72 0 4.418 3.582 8 8 8s8-3.582 8-8c0-1.041-0.199-2.035-0.56-2.947M24 10.667c0 4.418-3.582 8-8 8s-8-3.582-8-8 3.582-8 8-8c4.418 0 8 3.582 8 8z"></path>
        </symbol>
        <symbol id="icon-profile-setup" viewBox="0 0 32 32">
            <path d="M4.175 26.842c-0.528-0.528-0.792-0.792-0.891-1.096-0.087-0.268-0.087-0.556 0-0.824 0.099-0.304 0.363-0.568 0.891-1.096l9.158-9.158 4 4-9.158 9.158c-0.528 0.528-0.792 0.792-1.096 0.891-0.268 0.087-0.556 0.087-0.824 0-0.304-0.099-0.568-0.363-1.096-0.891l-0.983-0.983z"></path>
            <path stroke-linejoin="round" stroke-linecap="round" stroke-miterlimit="4" stroke-width="3.2" d="M17.333 18.667l-4-4M20.014 4.667v-2M25.266 6.748l1.414-1.414M25.266 17.333l1.414 1.414M14.68 6.748l-1.414-1.414M27.347 12h2M8.175 27.825l12.316-12.316c0.528-0.528 0.792-0.792 0.891-1.096 0.087-0.268 0.087-0.556 0-0.824-0.099-0.304-0.363-0.568-0.891-1.096l-0.983-0.983c-0.528-0.528-0.792-0.792-1.096-0.891-0.268-0.087-0.556-0.087-0.824 0-0.304 0.099-0.568 0.363-1.096 0.891l-12.316 12.316c-0.528 0.528-0.792 0.792-0.891 1.096-0.087 0.268-0.087 0.556 0 0.824 0.099 0.304 0.363 0.568 0.891 1.096l0.983 0.983c0.528 0.528 0.792 0.792 1.096 0.891 0.268 0.087 0.556 0.087 0.824 0 0.304-0.099 0.568-0.363 1.096-0.891z"></path>
        </symbol>
        <symbol id="icon-strategy" viewBox="0 0 32 32">
            <path d="M6.666 10.667c2.209 0 4-1.791 4-4s-1.791-4-4-4c-2.209 0-4 1.791-4 4s1.791 4 4 4z"></path>
            <path d="M25.333 29.333c2.209 0 4-1.791 4-4s-1.791-4-4-4c-2.209 0-4 1.791-4 4s1.791 4 4 4z"></path>
            <path stroke-linejoin="round" stroke-linecap="round" stroke-miterlimit="4" stroke-width="3.2" d="M15.333 6.667h0.579c4.063 0 6.094 0 6.866 0.73 0.667 0.631 0.962 1.56 0.782 2.46-0.208 1.041-1.867 2.214-5.184 4.56l-5.419 3.833c-3.317 2.346-4.976 3.519-5.184 4.56-0.18 0.9 0.115 1.829 0.782 2.46 0.771 0.73 2.803 0.73 6.866 0.73h1.246M10.666 6.667c0 2.209-1.791 4-4 4s-4-1.791-4-4c0-2.209 1.791-4 4-4s4 1.791 4 4zM29.333 25.333c0 2.209-1.791 4-4 4s-4-1.791-4-4c0-2.209 1.791-4 4-4s4 1.791 4 4z"></path>
        </symbol>
        <symbol id="icon-dropdown-arrow" viewBox="0 0 32 32">
            <path d="M30.24 10.438c0.333 0.375 0.333 0.729 0 1.063l-13.125 13.125c-0.333 0.333-0.667 0.333-1 0l-13.125-13.125c-0.333-0.333-0.333-0.688 0-1.063l1.25-1.188c0.333-0.375 0.688-0.375 1.063 0l11.313 11.25 11.313-11.25c0.375-0.375 0.729-0.375 1.062 0l1.25 1.188z"></path>
        </symbol>
        <symbol id="icon-Symbol" viewBox="0 0 42 32">
            <path fill="#eee" style="fill: var(--color1, #eee)" d="M41.224 11.125c0 1.92-1.68 3.52-3.6 3.52l-8-0c1.28 1.36 1.44 4-0.48 5.68 1.12 1.84 0.16 4.24-1.36 4.96 0.72 3.92-1.76 5.68-5.76 5.68-0.24 0-1.12 0-1.28 0-4.96 0-6.16-2.48-9.92-3.040-0.96-0.16-1.6-0.96-1.6-1.92l0-13.68c0-1.52 0.8-2.88 2.24-3.52 2.32-1.040 7.6-3.92 8.64-6.16 0.56-1.52 1.68-2.32 3.2-2.4 2.72 0 4.56 2.88 3.52 5.36-0.32 0.72-0.72 1.36-1.2 2l12 0c1.84 0 3.6 1.68 3.6 3.52zM7.944 11.125l-0 15.36c0 1.12-0.88 1.92-1.92 1.92h-3.84c-1.12 0-1.92-0.8-1.92-1.92l0-15.36c0-1.040 0.8-1.92 1.92-1.92h3.84c1.040 0 1.92 0.88 1.92 1.92zM5.704 24.565c0-0.88-0.72-1.6-1.6-1.6-0.96 0-1.6 0.72-1.6 1.6 0 0.96 0.64 1.6 1.6 1.6 0.88 0 1.6-0.64 1.6-1.6z"></path>
        </symbol>
        <symbol id="icon-phone-call" viewBox="0 0 32 32">
            <path fill="#c9cacd" style="fill: var(--color1, #c9cacd)" opacity="0.12" d="M10.087 13.572c0.891 1.855 2.105 3.594 3.643 5.133s3.277 2.753 5.133 3.643c0.16 0.077 0.239 0.115 0.34 0.144 0.359 0.105 0.799 0.029 1.103-0.188 0.085-0.061 0.159-0.134 0.305-0.281 0.448-0.448 0.671-0.671 0.896-0.818 0.849-0.552 1.942-0.552 2.791 0 0.225 0.146 0.449 0.37 0.896 0.818l0.249 0.249c0.68 0.68 1.020 1.020 1.205 1.386 0.367 0.726 0.367 1.584 0 2.311-0.185 0.365-0.525 0.705-1.205 1.386l-0.202 0.202c-0.678 0.678-1.017 1.017-1.478 1.276-0.511 0.287-1.306 0.494-1.892 0.492-0.529-0.002-0.89-0.104-1.612-0.309-3.883-1.102-7.547-3.181-10.603-6.238s-5.136-6.721-6.238-10.603c-0.205-0.723-0.308-1.084-0.309-1.612-0.002-0.587 0.205-1.381 0.492-1.892 0.259-0.461 0.598-0.8 1.276-1.478l0.202-0.202c0.68-0.68 1.020-1.020 1.386-1.205 0.726-0.367 1.584-0.367 2.311 0 0.365 0.185 0.705 0.525 1.386 1.205l0.249 0.249c0.447 0.447 0.671 0.671 0.818 0.896 0.552 0.848 0.552 1.942 0 2.791-0.146 0.225-0.37 0.449-0.818 0.896-0.146 0.146-0.219 0.219-0.281 0.305-0.218 0.304-0.293 0.745-0.188 1.103 0.029 0.101 0.068 0.181 0.144 0.34z"></path>
            <path fill="none" stroke="#c9cacd" style="stroke: var(--color1, #c9cacd)" stroke-linejoin="round" stroke-linecap="round" stroke-miterlimit="4" stroke-width="2.56" d="M18.624 8.64c1.25 0.244 2.399 0.855 3.3 1.756s1.512 2.050 1.756 3.3M18.624 3.52c2.598 0.289 5.020 1.452 6.869 3.299s3.015 4.268 3.307 6.865M13.731 18.705c-1.538-1.538-2.752-3.277-3.643-5.133-0.077-0.16-0.115-0.239-0.144-0.34-0.105-0.359-0.029-0.8 0.188-1.103 0.061-0.086 0.134-0.159 0.281-0.305 0.447-0.447 0.671-0.671 0.818-0.896 0.552-0.848 0.552-1.942 0-2.791-0.146-0.225-0.37-0.449-0.818-0.896l-0.249-0.249c-0.68-0.68-1.020-1.020-1.386-1.205-0.726-0.367-1.584-0.367-2.311 0-0.365 0.185-0.705 0.525-1.386 1.205l-0.202 0.202c-0.678 0.678-1.017 1.017-1.276 1.478-0.287 0.511-0.494 1.306-0.492 1.892 0.002 0.529 0.104 0.89 0.309 1.612 1.102 3.883 3.181 7.547 6.238 10.603s6.72 5.136 10.603 6.238c0.722 0.205 1.084 0.308 1.612 0.309 0.587 0.002 1.381-0.205 1.892-0.492 0.461-0.259 0.8-0.598 1.478-1.276l0.202-0.202c0.68-0.68 1.020-1.020 1.205-1.386 0.367-0.726 0.367-1.584 0-2.311-0.185-0.365-0.525-0.705-1.205-1.386l-0.249-0.249c-0.448-0.448-0.671-0.671-0.896-0.818-0.849-0.552-1.942-0.552-2.791 0-0.225 0.146-0.449 0.37-0.896 0.818-0.146 0.146-0.22 0.22-0.305 0.281-0.304 0.218-0.745 0.293-1.103 0.188-0.101-0.029-0.181-0.068-0.34-0.144-1.856-0.891-3.595-2.105-5.133-3.643z"></path>
        </symbol>
        <symbol id="icon-mail" viewBox="0 0 32 32">
            <path fill="#c9cacd" style="fill: var(--color1, #c9cacd)" opacity="0.12" d="M18.349 16.596c-0.846 0.593-1.27 0.889-1.73 1.003-0.407 0.101-0.832 0.101-1.238 0-0.46-0.115-0.883-0.411-1.73-1.003l-10.451-7.316c0-2.121 1.719-3.84 3.84-3.84h17.92c2.121 0 3.84 1.719 3.84 3.84l-10.451 7.316z"></path>
            <path fill="none" stroke="#c9cacd" style="stroke: var(--color1, #c9cacd)" stroke-linejoin="round" stroke-linecap="round" stroke-miterlimit="4" stroke-width="2.56" d="M28.16 23.36l-8.503-7.68M12.343 15.68l-8.503 7.68M3.2 9.28l10.451 7.316c0.846 0.593 1.27 0.889 1.73 1.003 0.407 0.101 0.832 0.101 1.238 0 0.46-0.115 0.883-0.411 1.73-1.003l10.451-7.316M9.344 25.92h13.312c2.151 0 3.226 0 4.047-0.419 0.723-0.368 1.31-0.956 1.678-1.678 0.419-0.822 0.419-1.897 0.419-4.047v-8.192c0-2.151 0-3.226-0.419-4.047-0.368-0.723-0.956-1.31-1.678-1.678-0.822-0.419-1.897-0.419-4.047-0.419h-13.312c-2.151 0-3.226 0-4.047 0.419-0.723 0.368-1.31 0.956-1.678 1.678-0.419 0.821-0.419 1.897-0.419 4.047v8.192c0 2.151 0 3.226 0.419 4.047 0.368 0.723 0.956 1.31 1.678 1.678 0.821 0.419 1.897 0.419 4.047 0.419z"></path>
        </symbol>
        <symbol id="icon-marker-pin" viewBox="0 0 33 32">
            <path fill="#c9cacd" style="fill: var(--color1, #c9cacd)" opacity="0.12" d="M16.667 22.667c2-4 8-6.582 8-12 0-4.418-3.582-8-8-8s-8 3.582-8 8c0 5.418 6 8 8 12z"></path>
            <path fill="none" stroke="#c9cacd" style="stroke: var(--color1, #c9cacd)" stroke-linejoin="round" stroke-linecap="round" stroke-miterlimit="4" stroke-width="2.6667" d="M7.333 19.049c-2.468 1.089-4 2.606-4 4.285 0 3.314 5.97 6 13.333 6s13.333-2.686 13.333-6c0-1.678-1.531-3.196-4-4.285M24.667 10.667c0 5.418-6 8-8 12-2-4-8-6.582-8-12 0-4.418 3.582-8 8-8s8 3.582 8 8zM18 10.667c0 0.736-0.597 1.333-1.333 1.333s-1.333-0.597-1.333-1.333c0-0.736 0.597-1.333 1.333-1.333s1.333 0.597 1.333 1.333z"></path>
        </symbol>
        <symbol id="icon-mobile-menu" viewBox="0 0 36 32">
            <path fill="#f89e52" style="fill: var(--color1, #f89e52)" d="M2.25 5.979c-0.703 0-1.25-0.547-1.25-1.25v-3.125c0-0.625 0.547-1.25 1.25-1.25h32.5c0.625 0 1.25 0.625 1.25 1.25v3.125c0 0.703-0.625 1.25-1.25 1.25h-32.5zM2.25 18.479c-0.703 0-1.25-0.547-1.25-1.25v-3.125c0-0.625 0.547-1.25 1.25-1.25h32.5c0.625 0 1.25 0.625 1.25 1.25v3.125c0 0.703-0.625 1.25-1.25 1.25h-32.5zM2.25 30.979c-0.703 0-1.25-0.547-1.25-1.25v-3.125c0-0.625 0.547-1.25 1.25-1.25h32.5c0.625 0 1.25 0.625 1.25 1.25v3.125c0 0.703-0.625 1.25-1.25 1.25h-32.5z"></path>
        </symbol>
    </defs>
</svg>
